 <svg width="123" height="31" viewBox="0 0 123 31" fill="none" xmlns="http://www.w3.org/2000/svg">
<path d="M6.24 30V4L8.52 6.36H0.32V2H11.44V30H6.24ZM25.7944 30.4C23.821 30.4 21.8877 30.12 19.9944 29.56C18.1277 28.9733 16.5544 28.1733 15.2744 27.16L17.5144 23.12C18.5277 23.9467 19.7544 24.6133 21.1944 25.12C22.6344 25.6267 24.141 25.88 25.7144 25.88C27.581 25.88 29.0344 25.5067 30.0744 24.76C31.1144 23.9867 31.6344 22.9467 31.6344 21.64C31.6344 20.36 31.1544 19.3467 30.1944 18.6C29.2344 17.8533 27.6877 17.48 25.5544 17.48H22.9944V13.92L30.9944 4.4L31.6744 6.36H16.6344V2H35.7144V5.48L27.7144 15L24.9944 13.4H26.5544C29.9944 13.4 32.5677 14.1733 34.2744 15.72C36.0077 17.24 36.8744 19.2 36.8744 21.6C36.8744 23.1733 36.4744 24.6267 35.6744 25.96C34.8744 27.2933 33.6477 28.3733 31.9944 29.2C30.3677 30 28.301 30.4 25.7944 30.4ZM42.2756 30V2H47.4756V25.6H62.1156V30H42.2756ZM78.94 30V25.68L78.66 24.76V17.2C78.66 15.7333 78.22 14.6 77.34 13.8C76.46 12.9733 75.1267 12.56 73.34 12.56C72.14 12.56 70.9533 12.7467 69.78 13.12C68.6333 13.4933 67.66 14.0133 66.86 14.68L64.9 11.04C66.0467 10.16 67.4067 9.50667 68.98 9.08C70.58 8.62667 72.2333 8.4 73.94 8.4C77.0333 8.4 79.42 9.14667 81.1 10.64C82.8067 12.1067 83.66 14.3867 83.66 17.48V30H78.94ZM72.22 30.28C70.62 30.28 69.22 30.0133 68.02 29.48C66.82 28.92 65.8867 28.16 65.22 27.2C64.58 26.2133 64.26 25.1067 64.26 23.88C64.26 22.68 64.54 21.6 65.1 20.64C65.6867 19.68 66.6333 18.92 67.94 18.36C69.2467 17.8 70.98 17.52 73.14 17.52H79.34V20.84H73.5C71.7933 20.84 70.6467 21.12 70.06 21.68C69.4733 22.2133 69.18 22.88 69.18 23.68C69.18 24.5867 69.54 25.3067 70.26 25.84C70.98 26.3733 71.98 26.64 73.26 26.64C74.4867 26.64 75.58 26.36 76.54 25.8C77.5267 25.24 78.2333 24.4133 78.66 23.32L79.5 26.32C79.02 27.5733 78.1533 28.5467 76.9 29.24C75.6733 29.9333 74.1133 30.28 72.22 30.28ZM101.917 30.28C100.104 30.28 98.4902 29.88 97.0769 29.08C95.6635 28.28 94.5435 27.08 93.7169 25.48C92.9169 23.8533 92.5169 21.8 92.5169 19.32C92.5169 16.8133 92.9302 14.76 93.7569 13.16C94.6102 11.56 95.7435 10.3733 97.1569 9.6C98.5969 8.8 100.184 8.4 101.917 8.4C104.024 8.4 105.877 8.85333 107.477 9.76C109.104 10.6667 110.384 11.9333 111.317 13.56C112.277 15.1867 112.757 17.1067 112.757 19.32C112.757 21.5333 112.277 23.4533 111.317 25.08C110.384 26.7067 109.104 27.9867 107.477 28.92C105.877 29.8267 104.024 30.28 101.917 30.28ZM90.0769 30V0.319998H95.0769V13.6L94.6769 19.28L94.8369 24.96V30H90.0769ZM101.357 26C102.557 26 103.624 25.7333 104.557 25.2C105.517 24.6667 106.277 23.8933 106.837 22.88C107.397 21.8667 107.677 20.68 107.677 19.32C107.677 17.9333 107.397 16.7467 106.837 15.76C106.277 14.7467 105.517 13.9733 104.557 13.44C103.624 12.9067 102.557 12.64 101.357 12.64C100.157 12.64 99.0769 12.9067 98.1169 13.44C97.1569 13.9733 96.3969 14.7467 95.8369 15.76C95.2769 16.7467 94.9969 17.9333 94.9969 19.32C94.9969 20.68 95.2769 21.8667 95.8369 22.88C96.3969 23.8933 97.1569 24.6667 98.1169 25.2C99.0769 25.7333 100.157 26 101.357 26Z" fill="white"/>
<path d="M119.099 30.28C118.192 30.28 117.419 29.9733 116.779 29.36C116.139 28.72 115.819 27.92 115.819 26.96C115.819 25.9467 116.139 25.1467 116.779 24.56C117.419 23.9467 118.192 23.64 119.099 23.64C120.005 23.64 120.779 23.9467 121.419 24.56C122.059 25.1467 122.379 25.9467 122.379 26.96C122.379 27.92 122.059 28.72 121.419 29.36C120.779 29.9733 120.005 30.28 119.099 30.28Z" fill="#C60707"/>
</svg>
